<svg width="24" height="24" viewBox="0 0 24 24" fill="none" xmlns="http://www.w3.org/2000/svg">
<path d="M0 0.0299541V23.9933H23.9633V16.8642C24.0122 16.6472 24.0122 16.4221 23.9633 16.2052V0H0V0.0299541ZM2.99541 3.02537H20.9679V15.007H16.4748C16.3851 14.9989 16.2949 14.9989 16.2052 15.007C15.808 15.0428 15.4412 15.2348 15.1856 15.541C14.93 15.8472 14.8065 16.2423 14.8423 16.6395C14.878 17.0367 15.0701 17.4035 15.3763 17.6591C15.6824 17.9147 16.0776 18.0382 16.4748 18.0024H20.9679V20.9978H2.99541V3.02537ZM10.4839 6.02078C7.99775 6.02078 5.99083 8.02771 5.99083 10.5139C5.99083 13.5093 10.4839 18.0024 10.4839 18.0024C10.4839 18.0024 14.9771 13.5093 14.9771 10.5139C14.9771 8.02771 12.9701 6.02078 10.4839 6.02078ZM10.4839 9.01619C11.3227 9.01619 11.9817 9.67519 11.9817 10.5139C11.9817 11.3526 11.3227 12.0116 10.4839 12.0116C9.64523 12.0116 8.98624 11.3526 8.98624 10.5139C8.98624 9.67519 9.64523 9.01619 10.4839 9.01619Z" fill="black"/>
</svg>
